<svg width="54" height="54" viewBox="0 0 27 27" fill="none" xmlns="http://www.w3.org/2000/svg">
<rect x="1" y="1" width="25" height="25" rx="4" fill="none" stroke="white" stroke-width="2" stroke-linejoin="round"/>
<path d="M6.05551 14.0006V5.54061H8.86351C9.79951 5.54061 10.5915 5.70461 11.2395 6.03261C11.8875 6.35261 12.3795 6.82861 12.7155 7.46061C13.0515 8.08461 13.2195 8.85261 13.2195 9.76461C13.2195 10.6686 13.0515 11.4366 12.7155 12.0686C12.3795 12.7006 11.8875 13.1806 11.2395 13.5086C10.5915 13.8366 9.79951 14.0006 8.86351 14.0006H6.05551ZM7.05151 13.1486H8.79151C9.94351 13.1486 10.7995 12.8686 11.3595 12.3086C11.9195 11.7406 12.1995 10.8926 12.1995 9.76461C12.1995 8.62861 11.9195 7.78061 11.3595 7.22061C10.7995 6.66061 9.94351 6.38061 8.79151 6.38061H7.05151V13.1486ZM17.7804 14.1086C17.1004 14.1086 16.4924 14.0206 15.9564 13.8446C15.4204 13.6686 14.9524 13.4166 14.5524 13.0886L14.9124 12.2966C15.1924 12.5046 15.4724 12.6806 15.7524 12.8246C16.0404 12.9606 16.3484 13.0646 16.6764 13.1366C17.0044 13.2006 17.3724 13.2326 17.7804 13.2326C18.4924 13.2326 19.0204 13.1006 19.3644 12.8366C19.7084 12.5726 19.8804 12.2206 19.8804 11.7806C19.8804 11.4046 19.7604 11.1166 19.5204 10.9166C19.2804 10.7166 18.8604 10.5566 18.2604 10.4366L17.0004 10.1846C16.2244 10.0246 15.6444 9.76461 15.2604 9.40461C14.8844 9.04461 14.6964 8.55661 14.6964 7.94061C14.6964 7.43661 14.8244 6.99661 15.0804 6.62061C15.3444 6.24461 15.7124 5.95261 16.1844 5.74461C16.6564 5.53661 17.2044 5.43261 17.8284 5.43261C18.4284 5.43261 18.9764 5.52461 19.4724 5.70861C19.9684 5.88461 20.3924 6.14461 20.7444 6.48861L20.3964 7.25661C20.0204 6.92061 19.6244 6.68061 19.2084 6.53661C18.8004 6.38461 18.3364 6.30861 17.8164 6.30861C17.1604 6.30861 16.6404 6.45261 16.2564 6.74061C15.8804 7.02061 15.6924 7.40461 15.6924 7.89261C15.6924 8.28461 15.8124 8.59261 16.0524 8.81661C16.2924 9.03261 16.6884 9.19661 17.2404 9.30861L18.5124 9.56061C19.3284 9.72861 19.9284 9.98061 20.3124 10.3166C20.6964 10.6526 20.8884 11.1246 20.8884 11.7326C20.8884 12.1966 20.7604 12.6086 20.5044 12.9686C20.2564 13.3286 19.9004 13.6086 19.4364 13.8086C18.9724 14.0086 18.4204 14.1086 17.7804 14.1086Z" fill="white"/>
<path d="M6.21125 22.0741L12.1709 16.1174M6.00002 15.8731L12.4077 15.8731L12.4077 22.0741" stroke="white"/>
</svg>
